<?xml version="1.0" encoding="utf-8"?>
<!-- Generator: Adobe Illustrator 17.1.0, SVG Export Plug-In . SVG Version: 6.00 Build 0)  -->
<!DOCTYPE svg PUBLIC "-//W3C//DTD SVG 1.1//EN" "http://www.w3.org/Graphics/SVG/1.1/DTD/svg11.dtd">
<svg version="1.1" id="Layer_1" xmlns="http://www.w3.org/2000/svg" xmlns:xlink="http://www.w3.org/1999/xlink" x="0px" y="0px"
	 viewBox="0 0 188 47.7" enable-background="new 0 0 188 47.7" xml:space="preserve">
<g>
	<g>
		<polygon fill-rule="evenodd" clip-rule="evenodd" fill="#58B947" points="12.1,30 6,36.1 6,23.9 0,30 0,17.8 		"/>
		<polygon fill-rule="evenodd" clip-rule="evenodd" fill="#58B947" points="6,11.7 6,23.9 12,17.8 12,30 18.1,23.9 		"/>
		<polygon fill-rule="evenodd" clip-rule="evenodd" fill="#004E9A" points="24,17.8 24,30 18,23.9 18,36.1 12,30 12,47.7 35.8,23.9 
			12,0 12,17.8 18,11.7 18,23.9 		"/>
	</g>
	<g>
		<path fill="#004E9A" d="M45,33.8v-20h10.4c3.1,0,5.2,0.8,6.7,2.3c1.2,1.3,1.8,3,1.8,4.7c0,1.9-0.8,3.7-2.1,5c-1.4,1.3-3.4,2-6.4,2
			H50v6H45z M50,17.8v6h5.6c0.8,0,1.8-0.1,2.6-0.8c0.5-0.5,0.9-1.5,0.9-2.2c0-0.8-0.3-1.6-0.8-2.2c-0.8-0.8-1.7-0.8-2.6-0.8H50z"/>
		<path fill="#004E9A" d="M81,25.8h-9v4h13v4H68v-20h17v4H72v4h9V25.8z"/>
		<polygon fill="#004E9A" points="105,13.8 105,25.7 93.5,13.8 89,13.8 89,33.8 94,33.8 94,21.8 94.3,21.8 105.6,33.8 110,33.8 
			110,13.8 		"/>
		<path fill="#004E9A" d="M113,13.8h22.2l-2,4H126v16h-5v-16h-8V13.8z"/>
		<path fill="#004E9A" d="M145.8,13.8h-4.2l-9.5,20h5.1l1.3-2.8l10.3-0.1l1.1,2.9h5.4L145.8,13.8z M140.1,26.8l3.4-7h0.2l3.4,7
			H140.1z"/>
		<path fill="#004E9A" d="M158,33.8v-20h5v20H158z"/>
		<path fill="#004E9A" d="M169,33.8v-20h10.5c3.2,0,5.2,0.8,6.7,2.3c1.2,1.2,1.8,3,1.8,4.8c0,2.9-1.8,5.1-4.5,6.3l4.3,6.6h-5.6
			l-3.6-6H174v6H169z M174,17.8v6h6c1.7,0,3.1-1.4,3.1-3.1c0-0.8-0.3-1.6-0.8-2.1c-0.8-0.9-1.8-0.8-2.7-0.8H174z"/>
	</g>
</g>
</svg>
